# xmcd
#
# Track frame offsets:
#	150
#	18395
#	36265
#	57990
#	78590
#	96862
#	117532
#	140747
#	158665
#	177247
#	194412
#	216185
#
# Disc length: 3125 seconds
#
# Revision: 1
# Processed by: cddbd v1.5.1PL0 Copyright (c) Steve Scherf et al.
# Submitted via: CDex 1.50Beta5
#
DISCID=ac0c330c
DTITLE=silver king - spiritual climber
DYEAR=1900
DGENRE=
TTITLE0=SILVER KING feat. YON-SHIN/1
TTITLE1=Pro CHINNEN/2
TTITLE2=VADER/3
TTITLE3=Minmi and IROKOMA/4
TTITLE4=PEETA MAN/5
TTITLE5=KENTY GROSS/6
TTITLE6=KULTURE T aka TAKAHASHIMAN/7
TTITLE7=VERSION1/8
TTITLE8=VERSION2/9
TTITLE9=BONGA STARS/10
TTITLE10=VERSION3/11
TTITLE11=VERSION4/12
EXTD=
EXTT0=
EXTT1=
EXTT2=
EXTT3=
EXTT4=
EXTT5=
EXTT6=
EXTT7=
EXTT8=
EXTT9=
EXTT10=
EXTT11=
PLAYORDER=
